HIERARCHY
ROOT character_A_root
{
	OFFSET 0.000000 0.000000 0.000000
	CHANNELS 6 Xposition Yposition Zposition Xrotation Yrotation Zrotation
	JOINT character_A_pelvis
	{
		OFFSET 0.000000 0.000000 0.000000
		CHANNELS 3 Xrotation Yrotation Zrotation
		JOINT character_A_spine
		{
			OFFSET -0.006400 0.538076 0.000000
			CHANNELS 3 Xrotation Yrotation Zrotation
			JOINT character_A_head
			{
				OFFSET 0.012744 0.245383 0.000000
				CHANNELS 3 Xrotation Yrotation Zrotation
				JOINT character_A_nose
				{
					OFFSET -0.008787 -0.131621 -0.002605
					CHANNELS 3 Xrotation Yrotation Zrotation
					End Site
					{
						OFFSET 0.000000 0.050000 0.000000
					}
				}
			}
			JOINT character_A_left_shoulder
			{
				OFFSET 0.108057 -0.069769 0.094471
				CHANNELS 3 Xrotation Yrotation Zrotation
				JOINT character_A_left_elbow
				{
					OFFSET 0.031628 -0.239596 -0.139088
					CHANNELS 3 Xrotation Yrotation Zrotation
					JOINT character_A_left_wrist
					{
						OFFSET 0.010597 -0.101834 -0.186326
						CHANNELS 3 Xrotation Yrotation Zrotation
						End Site
						{
							OFFSET 0.000000 0.050000 0.000000
						}
					}
				}
			}
			JOINT character_A_right_shoulder
			{
				OFFSET -0.114595 -0.059038 0.102763
				CHANNELS 3 Xrotation Yrotation Zrotation
				JOINT character_A_right_elbow
				{
					OFFSET -0.054650 -0.246550 -0.079184
					CHANNELS 3 Xrotation Yrotation Zrotation
					JOINT character_A_right_wrist
					{
						OFFSET -0.039546 -0.120930 -0.167408
						CHANNELS 3 Xrotation Yrotation Zrotation
						End Site
						{
							OFFSET 0.000000 0.050000 0.000000
						}
					}
				}
			}
		}
		JOINT character_A_left_hip
		{
			OFFSET 0.064495 -0.018473 0.101805
			CHANNELS 3 Xrotation Yrotation Zrotation
			JOINT character_A_left_knee
			{
				OFFSET -0.013415 -0.404926 0.097567
				CHANNELS 3 Xrotation Yrotation Zrotation
				JOINT character_A_left_ankle
				{
					OFFSET -0.033827 -0.357830 0.207383
					CHANNELS 3 Xrotation Yrotation Zrotation
					JOINT character_A_left_big_toe
					{
						OFFSET -0.008355 -0.113888 0.066374
						CHANNELS 3 Xrotation Yrotation Zrotation
						End Site
						{
							OFFSET 0.000000 0.050000 0.000000
						}
					}
					JOINT character_A_left_small_toe
					{
						OFFSET 0.019861 -0.105049 0.045203
						CHANNELS 3 Xrotation Yrotation Zrotation
						End Site
						{
							OFFSET 0.000000 0.050000 0.000000
						}
					}
					JOINT character_A_left_heel
					{
						OFFSET -0.015740 -0.054451 0.041248
						CHANNELS 3 Xrotation Yrotation Zrotation
						End Site
						{
							OFFSET 0.000000 0.050000 0.000000
						}
					}
				}
			}
		}
		JOINT character_A_right_hip
		{
			OFFSET -0.060818 -0.017714 0.289385
			CHANNELS 3 Xrotation Yrotation Zrotation
			JOINT character_A_right_knee
			{
				OFFSET 0.024497 -0.400024 0.102706
				CHANNELS 3 Xrotation Yrotation Zrotation
				JOINT character_A_right_ankle
				{
					OFFSET 0.016037 -0.354408 0.210815
					CHANNELS 3 Xrotation Yrotation Zrotation
					JOINT character_A_right_big_toe
					{
						OFFSET -0.000881 -0.112993 0.055364
						CHANNELS 3 Xrotation Yrotation Zrotation
						End Site
						{
							OFFSET 0.000000 0.050000 0.000000
						}
					}
					JOINT character_A_right_small_toe
					{
						OFFSET -0.021559 -0.104872 0.042888
						CHANNELS 3 Xrotation Yrotation Zrotation
						End Site
						{
							OFFSET 0.000000 0.050000 0.000000
						}
					}
					JOINT character_A_right_heel
					{
						OFFSET 0.008712 -0.057795 0.038858
						CHANNELS 3 Xrotation Yrotation Zrotation
						End Site
						{
							OFFSET 0.000000 0.050000 0.000000
						}
					}
				}
			}
		}
	}
}
MOTION
Frames: 15
Frame Time: 0.03333333
0.865333 -0.190573 1.451097 0.000000 0.000000 0.000000 -1.105385 -9.089752 0.955778 -1.078670 13.327087 -12.512822 2.410388 -4.503693 38.336881 0.000000 0.000000 0.000000 8.895800 8.062162 -6.713731 35.077446 -46.337860 66.791332 -0.000000 0.000000 0.000000 3.937530 -1.368716 4.543994 19.982666 -25.654294 31.028052 -0.000000 0.000000 0.000000 9.343309 12.287528 9.443481 -4.047964 -0.439073 -7.932579 4.250084 -12.344154 30.717552 0.000000 0.000000 0.000000 0.000000 0.000000 0.000000 0.000000 0.000000 0.000000 7.229976 11.468452 4.962238 -11.626491 3.381092 1.535361 11.805653 14.150302 13.511005 -0.000000 0.000000 -0.000000 -0.000000 0.000000 -0.000000 -0.000000 0.000000 -0.000000
0.844397 -0.185655 1.518932 0.000000 0.000000 0.000000 -1.368587 -14.011518 0.100297 8.911629 36.739399 -30.474590 4.755767 -24.191769 55.324612 0.000000 0.000000 0.000000 6.017589 -8.871634 5.710523 36.580124 -36.465832 62.867017 -0.000000 0.000000 -0.000000 18.961009 -19.949429 37.367962 9.795785 -23.923308 18.455197 0.000000 0.000000 0.000000 11.315161 18.285817 11.932117 -6.800783 2.698545 -5.916786 8.382948 -16.942341 26.346103 -0.000000 0.000000 0.000000 -0.000000 0.000000 0.000000 -0.000000 0.000000 0.000000 10.158739 15.562932 1.167590 -9.718324 0.687824 -0.728981 7.012397 19.376760 22.758730 0.000000 0.000000 0.000000 0.000000 0.000000 0.000000 0.000000 0.000000 0.000000
0.828392 -0.182972 1.568987 0.000000 0.000000 0.000000 -1.247604 -17.232816 -0.687185 111.835816 27.076725 -165.730002 103.735146 -38.371369 -174.273202 -0.000000 0.000000 0.000000 84.411678 -46.703842 118.729828 35.833826 -29.712321 59.023809 0.000000 0.000000 0.000000 86.763903 -24.034788 163.918436 3.451207 -22.802220 6.076115 -0.000000 0.000000 0.000000 12.197554 22.283541 13.621554 -8.196936 5.267952 -3.602401 15.440000 -32.142576 32.639590 0.000000 0.000000 0.000000 0.000000 0.000000 0.000000 0.000000 0.000000 0.000000 12.082763 18.025546 -1.901648 -8.871328 -1.613395 -2.518966 57.001864 -25.021039 76.446610 0.000000 0.000000 0.000000 0.000000 0.000000 0.000000 0.000000 0.000000 0.000000
0.810466 -0.181899 1.622188 0.000000 0.000000 0.000000 -1.433249 -14.558514 0.589442 9.071181 42.795081 -34.653859 10.175070 -28.260574 62.204235 -0.000000 0.000000 -0.000000 15.075335 -14.588055 20.053650 23.540790 -28.663570 42.271123 0.000000 0.000000 0.000000 17.094799 -28.328846 47.521081 26.353576 -29.839265 14.436211 -0.000000 0.000000 -0.000000 13.749718 18.486423 9.839156 -9.403082 4.287119 -3.550453 16.248333 -34.987466 36.840386 -0.000000 0.000000 -0.000000 -0.000000 0.000000 -0.000000 -0.000000 0.000000 -0.000000 10.300844 15.824793 0.031500 -7.670552 -0.302354 -1.998354 53.318503 -29.367825 70.730545 -0.000000 0.000000 0.000000 -0.000000 0.000000 0.000000 -0.000000 0.000000 0.000000
0.789525 -0.179922 1.657667 0.000000 0.000000 0.000000 -1.561205 -15.661975 0.299911 9.907395 44.251096 -39.721640 12.429752 -27.942460 67.870327 -0.000000 0.000000 -0.000000 17.431801 -12.611021 25.007568 21.687973 -26.554767 40.432817 -0.000000 0.000000 -0.000000 18.940047 -31.395269 63.304720 26.969985 -15.056444 -20.403286 0.000000 0.000000 -0.000000 14.385410 19.771880 10.086893 -10.129132 1.930078 -7.932251 12.725209 -12.642282 30.728756 0.000000 0.000000 -0.000000 0.000000 0.000000 -0.000000 0.000000 0.000000 -0.000000 10.091521 16.637423 -0.741515 -6.579380 -1.483917 -3.305524 29.069396 -4.033444 52.630766 -0.000000 0.000000 -0.000000 -0.000000 0.000000 -0.000000 -0.000000 0.000000 -0.000000
0.767013 -0.177618 1.684698 0.000000 0.000000 0.000000 -1.755023 -17.927677 -0.598361 98.596670 43.379513 -149.737016 80.800594 -47.703671 160.348122 0.000000 0.000000 0.000000 59.150494 -43.121728 97.084788 25.691657 -23.731546 42.712374 -0.000000 0.000000 0.000000 77.527866 -32.344171 156.251528 16.880649 -7.692510 -32.230314 -0.000000 0.000000 -0.000000 14.630294 22.839474 12.150764 -11.692537 3.320291 -7.880088 10.337110 -1.157802 21.343155 0.000000 0.000000 0.000000 0.000000 0.000000 0.000000 0.000000 0.000000 0.000000 11.889553 18.204915 -3.323443 -5.283282 -2.562653 -3.236102 37.193786 -10.223298 61.493711 -0.000000 0.000000 -0.000000 -0.000000 0.000000 -0.000000 -0.000000 0.000000 -0.000000
0.745881 -0.173101 1.666164 0.000000 0.000000 0.000000 -0.970923 -19.232382 -1.533713 79.219086 48.210810 -125.785844 53.771907 -53.710319 134.893613 -0.000000 0.000000 -0.000000 33.683628 -42.763784 70.070725 26.291005 -22.482885 44.877707 -0.000000 0.000000 -0.000000 56.834198 -40.161404 127.009834 20.299040 -14.046285 -15.820584 -0.000000 0.000000 -0.000000 13.662753 24.586192 13.556214 -12.786555 2.172311 -10.805123 7.775310 0.823359 19.199418 0.000000 0.000000 0.000000 0.000000 0.000000 0.000000 0.000000 0.000000 0.000000 12.415408 18.963428 -5.009991 -7.175761 -3.930687 -3.812542 9.037671 19.496132 52.610774 0.000000 0.000000 0.000000 0.000000 0.000000 0.000000 0.000000 0.000000 0.000000
0.723760 -0.166748 1.669392 0.000000 0.000000 0.000000 -0.478185 -20.445056 -2.289980 105.449451 28.576077 -157.912788 96.496848 -47.161893 -176.902076 -0.000000 0.000000 -0.000000 69.895526 -50.909719 111.725600 28.994451 -22.538642 48.928183 -0.000000 0.000000 -0.000000 78.333826 -30.590210 166.509708 13.891744 1.826868 -35.549435 0.000000 0.000000 -0.000000 12.977677 26.077523 14.501370 -12.527177 3.898204 -8.011761 5.003889 1.800974 12.120859 -0.000000 0.000000 -0.000000 -0.000000 0.000000 -0.000000 -0.000000 0.000000 -0.000000 13.143983 19.555534 -6.881943 -6.551411 -4.461664 -3.142592 13.039814 17.077272 53.618291 -0.000000 0.000000 -0.000000 -0.000000 0.000000 -0.000000 -0.000000 0.000000 -0.000000
0.704737 -0.163204 1.690263 0.000000 0.000000 0.000000 -0.133716 -16.948526 -1.384810 14.428615 44.572909 -46.248797 9.690410 -29.892605 69.954382 -0.000000 0.000000 -0.000000 14.369486 -14.858027 31.915737 21.665506 -23.932361 36.583894 0.000000 0.000000 0.000000 19.323188 -27.683478 61.027217 27.888193 -8.633058 -18.305513 -0.000000 0.000000 -0.000000 13.275082 21.138247 10.546655 -11.920989 2.920146 -6.127067 2.053093 -4.314291 15.367646 -0.000000 0.000000 -0.000000 -0.000000 0.000000 -0.000000 -0.000000 0.000000 -0.000000 10.062617 16.978780 -3.241075 -5.025115 -1.859047 -1.278709 -28.317202 56.233654 33.262094 -0.000000 0.000000 -0.000000 -0.000000 0.000000 -0.000000 -0.000000 0.000000 -0.000000
0.686770 -0.159352 1.715810 0.000000 0.000000 0.000000 -0.235790 -12.335669 -0.118369 -0.794829 22.232601 -17.483366 3.275982 -10.085902 45.239994 0.000000 0.000000 -0.000000 15.180415 -3.840423 19.921613 15.685910 -22.915772 21.433908 0.000000 0.000000 -0.000000 11.389941 -9.302516 23.253260 29.159466 -13.453252 2.515848 -0.000000 0.000000 0.000000 13.856650 14.745368 5.846542 -9.766064 1.244371 -4.515690 -2.493675 -5.973218 18.024963 -0.000000 0.000000 -0.000000 -0.000000 0.000000 -0.000000 -0.000000 0.000000 -0.000000 9.470261 13.296558 -0.324925 -4.466105 0.875317 0.870783 -9.141655 39.800969 12.152364 -0.000000 0.000000 0.000000 -0.000000 0.000000 0.000000 -0.000000 0.000000 0.000000
0.667592 -0.154225 1.743653 0.000000 0.000000 0.000000 -0.342994 -15.974643 -0.049110 -2.564625 19.661395 -17.837592 3.114483 -3.577969 45.228596 0.000000 0.000000 -0.000000 16.930588 4.972856 16.229108 14.945038 -23.288783 24.767762 -0.000000 0.000000 0.000000 0.229372 -0.766097 12.138313 41.694648 -17.513609 23.395818 0.000000 0.000000 0.000000 14.247680 18.553393 5.647748 -8.044970 -1.144965 -8.140771 -3.611736 -10.367644 22.225535 0.000000 0.000000 0.000000 0.000000 0.000000 0.000000 0.000000 0.000000 0.000000 8.287657 17.573808 1.647544 -3.660541 -0.582798 -2.835853 -10.760621 39.430879 22.935950 -0.000000 0.000000 -0.000000 -0.000000 0.000000 -0.000000 -0.000000 0.000000 -0.000000
0.651566 -0.150467 1.759370 0.000000 0.000000 0.000000 0.002167 -13.375883 0.529785 -3.932990 14.304585 -12.993034 3.267023 -0.843821 38.846526 0.000000 0.000000 -0.000000 19.069418 3.514984 17.634420 11.014215 -20.941798 15.222014 -0.000000 0.000000 -0.000000 0.939294 4.096461 1.414639 45.177266 -19.520892 36.693845 0.000000 0.000000 0.000000 13.972235 15.018995 3.352981 -6.630576 -2.251188 -7.595455 -5.253740 -8.533229 22.778318 -0.000000 0.000000 -0.000000 -0.000000 0.000000 -0.000000 -0.000000 0.000000 -0.000000 7.642694 15.656716 3.874557 -3.645741 0.554064 -2.456367 -9.265646 44.737141 13.192940 -0.000000 0.000000 0.000000 -0.000000 0.000000 0.000000 -0.000000 0.000000 0.000000
0.637123 -0.147995 1.779247 0.000000 0.000000 0.000000 0.129891 -9.908923 0.900463 -2.515998 8.408368 -9.188993 1.390173 1.140837 32.776668 -0.000000 0.000000 -0.000000 17.503651 0.100656 21.572285 8.989410 -17.570167 4.083161 0.000000 0.000000 -0.000000 4.062282 5.903942 -5.160870 43.863716 -20.785021 42.942679 0.000000 0.000000 -0.000000 13.751204 10.493936 0.935534 -5.531839 -2.517311 -5.758443 -6.569389 -8.150836 23.491375 -0.000000 0.000000 0.000000 -0.000000 0.000000 0.000000 -0.000000 0.000000 0.000000 8.176756 12.912198 5.886985 -4.303719 2.102033 -1.301728 -2.835428 40.190180 1.799272 0.000000 0.000000 -0.000000 0.000000 0.000000 -0.000000 0.000000 0.000000 -0.000000
0.626305 -0.146953 1.775742 0.000000 0.000000 0.000000 0.615990 -6.947879 1.234104 -0.865652 5.108280 -7.303427 -0.752975 1.205420 28.922254 -0.000000 0.000000 -0.000000 15.058984 -4.120895 26.708665 8.777844 -14.294360 -5.290949 -0.000000 0.000000 0.000000 4.793678 5.376751 -8.465830 44.161686 -21.969824 47.822315 -0.000000 0.000000 -0.000000 13.143288 6.605719 -1.211618 -4.865344 -2.416481 -3.845385 -7.657323 -8.111796 24.016567 -0.000000 0.000000 -0.000000 -0.000000 0.000000 -0.000000 -0.000000 0.000000 -0.000000 8.567132 10.556817 7.388513 -5.505724 3.495387 -0.131296 -0.573713 24.594315 -0.931818 0.000000 0.000000 0.000000 0.000000 0.000000 0.000000 0.000000 0.000000 0.000000
0.617228 -0.145864 1.772968 0.000000 0.000000 0.000000 0.872946 -4.746876 1.309947 1.019187 2.933145 -6.028556 -2.908748 0.999944 26.582561 0.000000 0.000000 0.000000 12.418271 -7.260022 30.275857 9.489357 -12.059281 -11.546203 -0.000000 0.000000 -0.000000 4.749023 4.531978 -10.258560 43.832210 -22.787033 50.846112 0.000000 0.000000 -0.000000 12.763379 3.788083 -2.569789 -3.880100 -2.327090 -2.435321 -9.549099 -9.883194 24.528862 -0.000000 0.000000 0.000000 -0.000000 0.000000 0.000000 -0.000000 0.000000 0.000000 9.082849 8.832440 8.578429 -6.586022 4.485136 0.684203 -1.806421 14.015494 -2.079607 0.000000 0.000000 -0.000000 0.000000 0.000000 -0.000000 0.000000 0.000000 -0.000000
